<?xml version="1.0" encoding="UTF-8" standalone="no"?>
<!DOCTYPE svg PUBLIC "-//W3C//DTD SVG 1.1//EN" "http://www.w3.org/Graphics/SVG/1.1/DTD/svg11.dtd">
<svg version="1.1" xmlns="http://www.w3.org/2000/svg" xmlns:xlink="http://www.w3.org/1999/xlink" preserveAspectRatio="xMidYMid meet" width="599" height="656" viewBox="0 0 599 656"><defs><path d="M5.1514348342607263e-14 2.7711166694643907e-13 L639.9999999999999 2.7711166694643907e-13 L639.9999999999999 656.0000000000001 L5.1514348342607263e-14 656.0000000000001 L5.1514348342607263e-14 2.7711166694643907e-13  Z " id="K6mk0Jls9X"></path><path d="M30 30 C30 41.03830048987999 21.038300489880015 50 10 50 C-1.0383004898799868 50 -10 41.03830048987999 -10 30 C-10 18.961699510120013 -1.0383004898799868 10 10 10 C21.038300489880015 10 30 18.961699510120013 30 30  Z " id="gkYyeF9zyM"></path><path d="M635 150 C635 161.03830048988 626.0383004898799 170 615 170 C603.96169951012 170 595 161.03830048988 595 150 C595 138.96169951012 603.96169951012 130 615 130 C626.0383004898799 130 635 138.96169951012 635 150  Z " id="PBJM9I2afB"></path><path d="M90 30 C90 41.03830048987999 81.03830048988002 50 70 50 C58.96169951012001 50 50 41.03830048987999 50 30 C50 18.961699510120013 58.96169951012001 10 70 10 C81.03830048988002 10 90 18.961699510120013 90 30  Z " id="NiFnyOITCM"></path><path d="M150 30 C150 41.03830048987999 141.03830048988002 50 130 50 C118.96169951012001 50 110 41.03830048987999 110 30 C110 18.961699510120013 118.96169951012001 10 130 10 C141.03830048988002 10 150 18.961699510120013 150 30  Z " id="wCpHXxt7Vd"></path><path d="M240 90 C240 101.03830048987999 231.03830048988002 110 220 110 C208.96169951012 110 200 101.03830048987999 200 90 C200 78.96169951012001 208.96169951012 70 220 70 C231.03830048988002 70 240 78.96169951012001 240 90  Z " id="OnyYfTtMYg"></path><path d="M210 30 C210 41.03830048987999 201.03830048988002 50 190 50 C178.96169951012 50 170 41.03830048987999 170 30 C170 18.961699510120013 178.96169951012 10 190 10 C201.03830048988002 10 210 18.961699510120013 210 30  Z " id="o9hPehNv21"></path><path d="M180 90 C180 101.03830048987999 171.03830048988002 110 160 110 C148.96169951012 110 140 101.03830048987999 140 90 C140 78.96169951012001 148.96169951012 70 160 70 C171.03830048988002 70 180 78.96169951012001 180 90  Z " id="pgrpL4R9Pa"></path><path d="M215 150 C215 161.03830048988 206.03830048988002 170 195 170 C183.96169951012 170 175 161.03830048988 175 150 C175 138.96169951012 183.96169951012 130 195 130 C206.03830048988002 130 215 138.96169951012 215 150  Z " id="o1hKHQ4NqN"></path><path d="M270 30 C270 41.03830048987999 261.03830048988004 50 250 50 C238.96169951012 50 230 41.03830048987999 230 30 C230 18.961699510120013 238.96169951012 10 250 10 C261.03830048988004 10 270 18.961699510120013 270 30  Z " id="HAnUB7LSKH"></path><path d="M300 90 C300 101.03830048987999 291.03830048988004 110 280 110 C268.96169951012 110 260 101.03830048987999 260 90 C260 78.96169951012001 268.96169951012 70 280 70 C291.03830048988004 70 300 78.96169951012001 300 90  Z " id="r3ESILadSp"></path><path d="M120 90 C120 101.03830048987999 111.03830048988002 110 100 110 C88.96169951012001 110 80 101.03830048987999 80 90 C80 78.96169951012001 88.96169951012001 70 100 70 C111.03830048988002 70 120 78.96169951012001 120 90  Z " id="CybpU1L02H"></path><path d="M330 30 C330 41.03830048987999 321.03830048988004 50 310 50 C298.96169951012 50 290 41.03830048987999 290 30 C290 18.961699510120013 298.96169951012 10 310 10 C321.03830048988004 10 330 18.961699510120013 330 30  Z " id="b9E3yX7DPj"></path><path d="M360 90 C360 101.03830048987999 351.03830048988004 110 340 110 C328.96169951012 110 320 101.03830048987999 320 90 C320 78.96169951012001 328.96169951012 70 340 70 C351.03830048988004 70 360 78.96169951012001 360 90  Z " id="zs3PjzDnwc"></path><path d="M390 30 C390 41.03830048987999 381.03830048988004 50 370 50 C358.96169951012 50 350 41.03830048987999 350 30 C350 18.961699510120013 358.96169951012 10 370 10 C381.03830048988004 10 390 18.961699510120013 390 30  Z " id="Qwool4RJdJ"></path><path d="M420 90 C420 101.03830048987999 411.03830048988004 110 400 110 C388.96169951012007 110 380 101.03830048987999 380 90 C380 78.96169951012001 388.96169951012007 70 400 70 C411.03830048988004 70 420 78.96169951012001 420 90  Z " id="EE5HqFpY5h"></path><path d="M60 90 C60 101.03830048987999 51.038300489880015 110 40 110 C28.961699510120013 110 20 101.03830048987999 20 90 C20 78.96169951012001 28.961699510120013 70 40 70 C51.038300489880015 70 60 78.96169951012001 60 90  Z " id="Ekwo4FP7La"></path><path d="M540 90 C540 101.03830048987999 531.03830048988 110 520 110 C508.96169951012007 110 500 101.03830048987999 500 90 C500 78.96169951012001 508.96169951012007 70 520 70 C531.03830048988 70 540 78.96169951012001 540 90  Z " id="VkZfwqneaQ"></path><path d="M510 30 C510 41.03830048987999 501.03830048988 50 490 50 C478.96169951011996 50 470 41.03830048987999 470 30 C470 18.961699510120013 478.96169951011996 10 490 10 C501.03830048988 10 510 18.961699510120013 510 30  Z " id="Zn53Jdeuv6"></path><path d="M570 30 C570 41.03830048987999 561.0383004898799 50 550 50 C538.96169951012 50 530 41.03830048987999 530 30 C530 18.961699510120013 538.96169951012 10 550 10 C561.0383004898799 10 570 18.961699510120013 570 30  Z " id="z1w7dJfK3n"></path><path d="M630 30 C630 41.03830048987999 621.0383004898799 50 610 50 C598.96169951012 50 590 41.03830048987999 590 30 C590 18.961699510120013 598.96169951012 10 610 10 C621.0383004898799 10 630 18.961699510120013 630 30  Z " id="j1Z1jWE84F"></path><path d="M450 30 C450 41.03830048987999 441.03830048988004 50 430 50 C418.96169951012 50 410 41.03830048987999 410 30 C410 18.961699510120013 418.96169951012 10 430 10 C441.03830048988004 10 450 18.961699510120013 450 30  Z " id="fe57kHfLON"></path><path d="M660 90 C660 101.03830048987999 651.0383004898799 110 640 110 C628.96169951012 110 620 101.03830048987999 620 90 C620 78.96169951012001 628.96169951012 70 640 70 C651.0383004898799 70 660 78.96169951012001 660 90  Z " id="J5ljwwNbO1"></path><path d="M600 90 C600 101.03830048987999 591.0383004898799 110 580 110 C568.96169951012 110 560 101.03830048987999 560 90 C560 78.96169951012001 568.96169951012 70 580 70 C591.0383004898799 70 600 78.96169951012001 600 90  Z " id="t68V1C5hL3"></path><path d="M65 210 C65 221.03830048988 56.038300489880015 230 45 230 C33.96169951012001 230 25 221.03830048988 25 210 C25 198.96169951012 33.96169951012001 190 45 190 C56.038300489880015 190 65 198.96169951012 65 210  Z " id="N5YLyq7DDb"></path><path d="M35 150 C35 161.03830048988 26.038300489880015 170 15 170 C3.961699510120013 170 -5 161.03830048988 -5 150 C-5 138.96169951012 3.961699510120013 130 15 130 C26.038300489880015 130 35 138.96169951012 35 150  Z " id="LkBYnFvlio"></path><path d="M155 150 C155 161.03830048988 146.03830048988002 170 135 170 C123.96169951012001 170 115 161.03830048988 115 150 C115 138.96169951012 123.96169951012001 130 135 130 C146.03830048988002 130 155 138.96169951012 155 150  Z " id="sf8S9DZc3L"></path><path d="M95 150 C95 161.03830048988 86.03830048988002 170 75 170 C63.96169951012001 170 55 161.03830048988 55 150 C55 138.96169951012 63.96169951012001 130 75 130 C86.03830048988002 130 95 138.96169951012 95 150  Z " id="sudyXaFkju"></path><path d="M125 210 C125 221.03830048988 116.03830048988002 230 105 230 C93.96169951012001 230 85 221.03830048988 85 210 C85 198.96169951012 93.96169951012001 190 105 190 C116.03830048988002 190 125 198.96169951012 125 210  Z " id="r20KHOimB3"></path><path d="M185 210 C185 221.03830048988 176.03830048988002 230 165 230 C153.96169951012 230 145 221.03830048988 145 210 C145 198.96169951012 153.96169951012 190 165 190 C176.03830048988002 190 185 198.96169951012 185 210  Z " id="JBx8qdju4n"></path><path d="M665 210 C665 221.03830048988 656.0383004898799 230 645 230 C633.96169951012 230 625 221.03830048988 625 210 C625 198.96169951012 633.96169951012 190 645 190 C656.0383004898799 190 665 198.96169951012 665 210  Z " id="pxUOynKzKf"></path><path d="M245 210 C245 221.03830048988 236.03830048988002 230 225 230 C213.96169951012 230 205 221.03830048988 205 210 C205 198.96169951012 213.96169951012 190 225 190 C236.03830048988002 190 245 198.96169951012 245 210  Z " id="n3poEoZECl"></path><path d="M275 150 C275 161.03830048988 266.03830048988004 170 255 170 C243.96169951012 170 235 161.03830048988 235 150 C235 138.96169951012 243.96169951012 130 255 130 C266.03830048988004 130 275 138.96169951012 275 150  Z " id="pgmkZy5BS0"></path><path d="M305 210 C305 221.03830048988 296.03830048988004 230 285 230 C273.96169951012 230 265 221.03830048988 265 210 C265 198.96169951012 273.96169951012 190 285 190 C296.03830048988004 190 305 198.96169951012 305 210  Z " id="hitOkrpGwM"></path><path d="M335 150 C335 161.03830048988 326.03830048988004 170 315 170 C303.96169951012 170 295 161.03830048988 295 150 C295 138.96169951012 303.96169951012 130 315 130 C326.03830048988004 130 335 138.96169951012 335 150  Z " id="q8JlPA1uNj"></path><path d="M365 210 C365 221.03830048988 356.03830048988004 230 345 230 C333.96169951012 230 325 221.03830048988 325 210 C325 198.96169951012 333.96169951012 190 345 190 C356.03830048988004 190 365 198.96169951012 365 210  Z " id="fsITmXaTfy"></path><path d="M395 150 C395 161.03830048988 386.03830048988004 170 375 170 C363.96169951012 170 355 161.03830048988 355 150 C355 138.96169951012 363.96169951012 130 375 130 C386.03830048988004 130 395 138.96169951012 395 150  Z " id="JgtTEEhN4c"></path><path d="M425 210 C425 221.03830048988 416.03830048988004 230 405 230 C393.96169951012007 230 385 221.03830048988 385 210 C385 198.96169951012 393.96169951012007 190 405 190 C416.03830048988004 190 425 198.96169951012 425 210  Z " id="nziJajxtmf"></path><path d="M455 150 C455 161.03830048988 446.03830048988 170 435 170 C423.96169951011996 170 415 161.03830048988 415 150 C415 138.96169951012 423.96169951011996 130 435 130 C446.03830048988 130 455 138.96169951012 455 150  Z " id="P6kCNWLWr7"></path><path d="M485 210 C485 221.03830048988 476.03830048988 230 465 230 C453.96169951011996 230 445 221.03830048988 445 210 C445 198.96169951012 453.96169951011996 190 465 190 C476.03830048988 190 485 198.96169951012 485 210  Z " id="L33VOM5cyZ"></path><path d="M515 150 C515 161.03830048988 506.03830048988 170 495 170 C483.96169951011996 170 475 161.03830048988 475 150 C475 138.96169951012 483.96169951011996 130 495 130 C506.03830048988 130 515 138.96169951012 515 150  Z " id="WrUx6eijVm"></path><path d="M545 210 C545 221.03830048988 536.03830048988 230 525 230 C513.9616995101201 230 505 221.03830048988 505 210 C505 198.96169951012 513.9616995101201 190 525 190 C536.03830048988 190 545 198.96169951012 545 210  Z " id="CzgW77Krkr"></path><path d="M575 150 C575 161.03830048988 566.0383004898799 170 555 170 C543.96169951012 170 535 161.03830048988 535 150 C535 138.96169951012 543.96169951012 130 555 130 C566.0383004898799 130 575 138.96169951012 575 150  Z " id="D7MPUDbfZD"></path><path d="M605 210 C605 221.03830048988 596.0383004898799 230 585 230 C573.96169951012 230 565 221.03830048988 565 210 C565 198.96169951012 573.96169951012 190 585 190 C596.0383004898799 190 605 198.96169951012 605 210  Z " id="CEBlR1Fgo7"></path><path d="M480 90 C480 101.03830048987999 471.03830048988 110 460 110 C448.96169951011996 110 440 101.03830048987999 440 90 C440 78.96169951012001 448.96169951011996 70 460 70 C471.03830048988 70 480 78.96169951012001 480 90  Z " id="GbJoE78Va1"></path><path d="M35 270 C35 281.03830048988 26.038300489880015 290 15 290 C3.961699510120013 290 -5 281.03830048988 -5 270 C-5 258.96169951012 3.961699510120013 250 15 250 C26.038300489880015 250 35 258.96169951012 35 270  Z " id="GC2c9J4MUv"></path><path d="M640 390 C640 401.03830048988 631.0383004898799 410 620 410 C608.96169951012 410 600 401.03830048988 600 390 C600 378.96169951012 608.96169951012 370 620 370 C631.0383004898799 370 640 378.96169951012 640 390  Z " id="sm7XaaVA6A"></path><path d="M95 270 C95 281.03830048988 86.03830048988002 290 75 290 C63.96169951012001 290 55 281.03830048988 55 270 C55 258.96169951012 63.96169951012001 250 75 250 C86.03830048988002 250 95 258.96169951012 95 270  Z " id="YzjQw8OBRB"></path><path d="M155 270 C155 281.03830048988 146.03830048988002 290 135 290 C123.96169951012001 290 115 281.03830048988 115 270 C115 258.96169951012 123.96169951012001 250 135 250 C146.03830048988002 250 155 258.96169951012 155 270  Z " id="IpMYXG8M12"></path><path d="M245 330 C245 341.03830048988 236.03830048988002 350 225 350 C213.96169951012 350 205 341.03830048988 205 330 C205 318.96169951012 213.96169951012 310 225 310 C236.03830048988002 310 245 318.96169951012 245 330  Z " id="s6hjyghjC9"></path><path d="M215 270 C215 281.03830048988 206.03830048988002 290 195 290 C183.96169951012 290 175 281.03830048988 175 270 C175 258.96169951012 183.96169951012 250 195 250 C206.03830048988002 250 215 258.96169951012 215 270  Z " id="BdFGlFiamB"></path><path d="M185 330 C185 341.03830048988 176.03830048988002 350 165 350 C153.96169951012 350 145 341.03830048988 145 330 C145 318.96169951012 153.96169951012 310 165 310 C176.03830048988002 310 185 318.96169951012 185 330  Z " id="EfsSoA3jNL"></path><path d="M220 390 C220 401.03830048988 211.03830048988002 410 200 410 C188.96169951012 410 180 401.03830048988 180 390 C180 378.96169951012 188.96169951012 370 200 370 C211.03830048988002 370 220 378.96169951012 220 390  Z " id="T5fZmWn4Fr"></path><path d="M275 270 C275 281.03830048988 266.03830048988004 290 255 290 C243.96169951012 290 235 281.03830048988 235 270 C235 258.96169951012 243.96169951012 250 255 250 C266.03830048988004 250 275 258.96169951012 275 270  Z " id="Zmfz5W0DxC"></path><path d="M305 330 C305 341.03830048988 296.03830048988004 350 285 350 C273.96169951012 350 265 341.03830048988 265 330 C265 318.96169951012 273.96169951012 310 285 310 C296.03830048988004 310 305 318.96169951012 305 330  Z " id="Ls30DjPSc8"></path><path d="M125 330 C125 341.03830048988 116.03830048988002 350 105 350 C93.96169951012001 350 85 341.03830048988 85 330 C85 318.96169951012 93.96169951012001 310 105 310 C116.03830048988002 310 125 318.96169951012 125 330  Z " id="Iw9vJKAtSn"></path><path d="M335 270 C335 281.03830048988 326.03830048988004 290 315 290 C303.96169951012 290 295 281.03830048988 295 270 C295 258.96169951012 303.96169951012 250 315 250 C326.03830048988004 250 335 258.96169951012 335 270  Z " id="DgsBp33VIY"></path><path d="M365 330 C365 341.03830048988 356.03830048988004 350 345 350 C333.96169951012 350 325 341.03830048988 325 330 C325 318.96169951012 333.96169951012 310 345 310 C356.03830048988004 310 365 318.96169951012 365 330  Z " id="AqHoR3MYPC"></path><path d="M395 270 C395 281.03830048988 386.03830048988004 290 375 290 C363.96169951012 290 355 281.03830048988 355 270 C355 258.96169951012 363.96169951012 250 375 250 C386.03830048988004 250 395 258.96169951012 395 270  Z " id="g6dslqS5JT"></path><path d="M425 330 C425 341.03830048988 416.03830048988004 350 405 350 C393.96169951012007 350 385 341.03830048988 385 330 C385 318.96169951012 393.96169951012007 310 405 310 C416.03830048988004 310 425 318.96169951012 425 330  Z " id="xdLTqiWE8x"></path><path d="M65 330 C65 341.03830048988 56.038300489880015 350 45 350 C33.96169951012001 350 25 341.03830048988 25 330 C25 318.96169951012 33.96169951012001 310 45 310 C56.038300489880015 310 65 318.96169951012 65 330  Z " id="W5xjh9YWdz"></path><path d="M545 330 C545 341.03830048988 536.03830048988 350 525 350 C513.9616995101201 350 505 341.03830048988 505 330 C505 318.96169951012 513.9616995101201 310 525 310 C536.03830048988 310 545 318.96169951012 545 330  Z " id="MfYpjANfG0"></path><path d="M515 270 C515 281.03830048988 506.03830048988 290 495 290 C483.96169951011996 290 475 281.03830048988 475 270 C475 258.96169951012 483.96169951011996 250 495 250 C506.03830048988 250 515 258.96169951012 515 270  Z " id="YqWdDYU4aA"></path><path d="M575 270 C575 281.03830048988 566.0383004898799 290 555 290 C543.96169951012 290 535 281.03830048988 535 270 C535 258.96169951012 543.96169951012 250 555 250 C566.0383004898799 250 575 258.96169951012 575 270  Z " id="NnIAGeDLR6"></path><path d="M635 270 C635 281.03830048988 626.0383004898799 290 615 290 C603.96169951012 290 595 281.03830048988 595 270 C595 258.96169951012 603.96169951012 250 615 250 C626.0383004898799 250 635 258.96169951012 635 270  Z " id="jAtWXsfdoj"></path><path d="M455 270 C455 281.03830048988 446.03830048988 290 435 290 C423.96169951011996 290 415 281.03830048988 415 270 C415 258.96169951012 423.96169951011996 250 435 250 C446.03830048988 250 455 258.96169951012 455 270  Z " id="DklT5FC3Ru"></path><path d="M665 330 C665 341.03830048988 656.0383004898799 350 645 350 C633.96169951012 350 625 341.03830048988 625 330 C625 318.96169951012 633.96169951012 310 645 310 C656.0383004898799 310 665 318.96169951012 665 330  Z " id="Qg16sAwkko"></path><path d="M605 330 C605 341.03830048988 596.0383004898799 350 585 350 C573.96169951012 350 565 341.03830048988 565 330 C565 318.96169951012 573.96169951012 310 585 310 C596.0383004898799 310 605 318.96169951012 605 330  Z " id="IxEYaHKo6H"></path><path d="M70 450 C70 461.03830048988 61.038300489880015 470 50 470 C38.96169951012001 470 30 461.03830048988 30 450 C30 438.96169951012 38.96169951012001 430 50 430 C61.038300489880015 430 70 438.96169951012 70 450  Z " id="l92cvNkBIR"></path><path d="M40 390 C40 401.03830048988 31.038300489880015 410 20 410 C8.961699510120013 410 0 401.03830048988 0 390 C0 378.96169951012 8.961699510120013 370 20 370 C31.038300489880015 370 40 378.96169951012 40 390  Z " id="jz9Npd7r5B"></path><path d="M160 390 C160 401.03830048988 151.03830048988002 410 140 410 C128.96169951012 410 120 401.03830048988 120 390 C120 378.96169951012 128.96169951012 370 140 370 C151.03830048988002 370 160 378.96169951012 160 390  Z " id="CBM0GXOBiL"></path><path d="M100 390 C100 401.03830048988 91.03830048988002 410 80 410 C68.96169951012001 410 60 401.03830048988 60 390 C60 378.96169951012 68.96169951012001 370 80 370 C91.03830048988002 370 100 378.96169951012 100 390  Z " id="CtAQNG69Y4"></path><path d="M130 450 C130 461.03830048988 121.03830048988002 470 110 470 C98.96169951012001 470 90 461.03830048988 90 450 C90 438.96169951012 98.96169951012001 430 110 430 C121.03830048988002 430 130 438.96169951012 130 450  Z " id="BB1CgRl0GH"></path><path d="M190 450 C190 461.03830048988 181.03830048988002 470 170 470 C158.96169951012 470 150 461.03830048988 150 450 C150 438.96169951012 158.96169951012 430 170 430 C181.03830048988002 430 190 438.96169951012 190 450  Z " id="A9x2wqUIXD"></path><path d="M670 450 C670 461.03830048988 661.0383004898799 470 650 470 C638.96169951012 470 630 461.03830048988 630 450 C630 438.96169951012 638.96169951012 430 650 430 C661.0383004898799 430 670 438.96169951012 670 450  Z " id="zwDWzozWRV"></path><path d="M250 450 C250 461.03830048988 241.03830048988002 470 230 470 C218.96169951012 470 210 461.03830048988 210 450 C210 438.96169951012 218.96169951012 430 230 430 C241.03830048988002 430 250 438.96169951012 250 450  Z " id="B92owXV2cF"></path><path d="M280 390 C280 401.03830048988 271.03830048988004 410 260 410 C248.96169951012 410 240 401.03830048988 240 390 C240 378.96169951012 248.96169951012 370 260 370 C271.03830048988004 370 280 378.96169951012 280 390  Z " id="UzUHSvkhyL"></path><path d="M310 450 C310 461.03830048988 301.03830048988004 470 290 470 C278.96169951012 470 270 461.03830048988 270 450 C270 438.96169951012 278.96169951012 430 290 430 C301.03830048988004 430 310 438.96169951012 310 450  Z " id="Bof17fJmKs"></path><path d="M340 390 C340 401.03830048988 331.03830048988004 410 320 410 C308.96169951012 410 300 401.03830048988 300 390 C300 378.96169951012 308.96169951012 370 320 370 C331.03830048988004 370 340 378.96169951012 340 390  Z " id="Ekhv2zItjy"></path><path d="M370 450 C370 461.03830048988 361.03830048988004 470 350 470 C338.96169951012 470 330 461.03830048988 330 450 C330 438.96169951012 338.96169951012 430 350 430 C361.03830048988004 430 370 438.96169951012 370 450  Z " id="snUu0hk6ZO"></path><path d="M400 390 C400 401.03830048988 391.03830048988004 410 380 410 C368.96169951012 410 360 401.03830048988 360 390 C360 378.96169951012 368.96169951012 370 380 370 C391.03830048988004 370 400 378.96169951012 400 390  Z " id="LgTSu1uRQQ"></path><path d="M430 450 C430 461.03830048988 421.03830048988004 470 410 470 C398.96169951012007 470 390 461.03830048988 390 450 C390 438.96169951012 398.96169951012007 430 410 430 C421.03830048988004 430 430 438.96169951012 430 450  Z " id="oevz16tIE9"></path><path d="M460 390 C460 401.03830048988 451.03830048988 410 440 410 C428.96169951011996 410 420 401.03830048988 420 390 C420 378.96169951012 428.96169951011996 370 440 370 C451.03830048988 370 460 378.96169951012 460 390  Z " id="EA7qSNK3td"></path><path d="M490 450 C490 461.03830048988 481.03830048988 470 470 470 C458.96169951011996 470 450 461.03830048988 450 450 C450 438.96169951012 458.96169951011996 430 470 430 C481.03830048988 430 490 438.96169951012 490 450  Z " id="mwoqhLvB4r"></path><path d="M520 390 C520 401.03830048988 511.03830048988 410 500 410 C488.96169951011996 410 480 401.03830048988 480 390 C480 378.96169951012 488.96169951011996 370 500 370 C511.03830048988 370 520 378.96169951012 520 390  Z " id="ykCuyjULaE"></path><path d="M550 450 C550 461.03830048988 541.03830048988 470 530 470 C518.9616995101201 470 510 461.03830048988 510 450 C510 438.96169951012 518.9616995101201 430 530 430 C541.03830048988 430 550 438.96169951012 550 450  Z " id="OmXv0JYK0o"></path><path d="M580 390 C580 401.03830048988 571.0383004898799 410 560 410 C548.96169951012 410 540 401.03830048988 540 390 C540 378.96169951012 548.96169951012 370 560 370 C571.0383004898799 370 580 378.96169951012 580 390  Z " id="heYtbt2GvT"></path><path d="M610 450 C610 461.03830048988 601.0383004898799 470 590 470 C578.96169951012 470 570 461.03830048988 570 450 C570 438.96169951012 578.96169951012 430 590 430 C601.0383004898799 430 610 438.96169951012 610 450  Z " id="ma5cFfGQhj"></path><path d="M485 330 C485 341.03830048988 476.03830048988 350 465 350 C453.96169951011996 350 445 341.03830048988 445 330 C445 318.96169951012 453.96169951011996 310 465 310 C476.03830048988 310 485 318.96169951012 485 330  Z " id="Xb69TCs1O1"></path><path d="M42.5 510 C42.5 521.0383004898799 33.538300489880015 530 22.5 530 C11.461699510120013 530 2.5 521.0383004898799 2.5 510 C2.5 498.96169951012 11.461699510120013 490 22.5 490 C33.538300489880015 490 42.5 498.96169951012 42.5 510  Z " id="b266LnT0Qh"></path><path d="M647.5 630 C647.5 641.0383004898799 638.5383004898799 650 627.5 650 C616.46169951012 650 607.5 641.0383004898799 607.5 630 C607.5 618.9616995101201 616.46169951012 610 627.5 610 C638.5383004898799 610 647.5 618.9616995101201 647.5 630  Z " id="BtoLPXZczK"></path><path d="M102.5 510 C102.5 521.0383004898799 93.53830048988002 530 82.5 530 C71.46169951012001 530 62.5 521.0383004898799 62.5 510 C62.5 498.96169951012 71.46169951012001 490 82.5 490 C93.53830048988002 490 102.5 498.96169951012 102.5 510  Z " id="wEDj6xVjZB"></path><path d="M162.5 510 C162.5 521.0383004898799 153.53830048988002 530 142.5 530 C131.46169951012 530 122.5 521.0383004898799 122.5 510 C122.5 498.96169951012 131.46169951012 490 142.5 490 C153.53830048988002 490 162.5 498.96169951012 162.5 510  Z " id="dsEBtN80LK"></path><path d="M252.5 570 C252.5 581.0383004898799 243.53830048988002 590 232.5 590 C221.46169951012 590 212.5 581.0383004898799 212.5 570 C212.5 558.9616995101201 221.46169951012 550 232.5 550 C243.53830048988002 550 252.5 558.9616995101201 252.5 570  Z " id="pjTcefcFJC"></path><path d="M222.5 510 C222.5 521.0383004898799 213.53830048988002 530 202.5 530 C191.46169951012 530 182.5 521.0383004898799 182.5 510 C182.5 498.96169951012 191.46169951012 490 202.5 490 C213.53830048988002 490 222.5 498.96169951012 222.5 510  Z " id="SqS4U9t1Cw"></path><path d="M192.5 570 C192.5 581.0383004898799 183.53830048988002 590 172.5 590 C161.46169951012 590 152.5 581.0383004898799 152.5 570 C152.5 558.9616995101201 161.46169951012 550 172.5 550 C183.53830048988002 550 192.5 558.9616995101201 192.5 570  Z " id="tq4D9zwOe4"></path><path d="M227.5 630 C227.5 641.0383004898799 218.53830048988002 650 207.5 650 C196.46169951012 650 187.5 641.0383004898799 187.5 630 C187.5 618.9616995101201 196.46169951012 610 207.5 610 C218.53830048988002 610 227.5 618.9616995101201 227.5 630  Z " id="hefCzqDL57"></path><path d="M282.5 510 C282.5 521.0383004898799 273.53830048988004 530 262.5 530 C251.46169951012 530 242.5 521.0383004898799 242.5 510 C242.5 498.96169951012 251.46169951012 490 262.5 490 C273.53830048988004 490 282.5 498.96169951012 282.5 510  Z " id="NEcg6Xne2j"></path><path d="M312.5 570 C312.5 581.0383004898799 303.53830048988004 590 292.5 590 C281.46169951012 590 272.5 581.0383004898799 272.5 570 C272.5 558.9616995101201 281.46169951012 550 292.5 550 C303.53830048988004 550 312.5 558.9616995101201 312.5 570  Z " id="UmTgVxhkME"></path><path d="M132.5 570 C132.5 581.0383004898799 123.53830048988002 590 112.5 590 C101.46169951012001 590 92.5 581.0383004898799 92.5 570 C92.5 558.9616995101201 101.46169951012001 550 112.5 550 C123.53830048988002 550 132.5 558.9616995101201 132.5 570  Z " id="ectZ62NzR7"></path><path d="M342.5 510 C342.5 521.0383004898799 333.53830048988004 530 322.5 530 C311.46169951012 530 302.5 521.0383004898799 302.5 510 C302.5 498.96169951012 311.46169951012 490 322.5 490 C333.53830048988004 490 342.5 498.96169951012 342.5 510  Z " id="mvaQjYMQ1h"></path><path d="M372.5 570 C372.5 581.0383004898799 363.53830048988004 590 352.5 590 C341.46169951012 590 332.5 581.0383004898799 332.5 570 C332.5 558.9616995101201 341.46169951012 550 352.5 550 C363.53830048988004 550 372.5 558.9616995101201 372.5 570  Z " id="bjIFgTaycM"></path><path d="M402.5 510 C402.5 521.0383004898799 393.53830048988004 530 382.5 530 C371.46169951012 530 362.5 521.0383004898799 362.5 510 C362.5 498.96169951012 371.46169951012 490 382.5 490 C393.53830048988004 490 402.5 498.96169951012 402.5 510  Z " id="Xt9R1B07cc"></path><path d="M432.5 570 C432.5 581.0383004898799 423.53830048988004 590 412.5 590 C401.46169951012007 590 392.5 581.0383004898799 392.5 570 C392.5 558.9616995101201 401.46169951012007 550 412.5 550 C423.53830048988004 550 432.5 558.9616995101201 432.5 570  Z " id="Wz5NLwj1fh"></path><path d="M72.5 570 C72.5 581.0383004898799 63.538300489880015 590 52.5 590 C41.46169951012001 590 32.5 581.0383004898799 32.5 570 C32.5 558.9616995101201 41.46169951012001 550 52.5 550 C63.538300489880015 550 72.5 558.9616995101201 72.5 570  Z " id="DzsIIR88Gz"></path><path d="M552.5 570 C552.5 581.0383004898799 543.53830048988 590 532.5 590 C521.4616995101201 590 512.5 581.0383004898799 512.5 570 C512.5 558.9616995101201 521.4616995101201 550 532.5 550 C543.53830048988 550 552.5 558.9616995101201 552.5 570  Z " id="OouPcONLmo"></path><path d="M522.5 510 C522.5 521.0383004898799 513.5383004898799 530 502.5 530 C491.46169951011996 530 482.5 521.0383004898799 482.5 510 C482.5 498.96169951012 491.46169951011996 490 502.5 490 C513.5383004898799 490 522.5 498.96169951012 522.5 510  Z " id="koerISnX0I"></path><path d="M582.5 510 C582.5 521.0383004898799 573.5383004898799 530 562.5 530 C551.46169951012 530 542.5 521.0383004898799 542.5 510 C542.5 498.96169951012 551.46169951012 490 562.5 490 C573.5383004898799 490 582.5 498.96169951012 582.5 510  Z " id="qd0NrLSHSx"></path><path d="M642.5 510 C642.5 521.0383004898799 633.5383004898799 530 622.5 530 C611.46169951012 530 602.5 521.0383004898799 602.5 510 C602.5 498.96169951012 611.46169951012 490 622.5 490 C633.5383004898799 490 642.5 498.96169951012 642.5 510  Z " id="tlqYU83uh2"></path><path d="M462.5 510 C462.5 521.0383004898799 453.53830048988 530 442.5 530 C431.46169951011996 530 422.5 521.0383004898799 422.5 510 C422.5 498.96169951012 431.46169951011996 490 442.5 490 C453.53830048988 490 462.5 498.96169951012 462.5 510  Z " id="hiHhMkqtdS"></path><path d="M672.5 570 C672.5 581.0383004898799 663.5383004898799 590 652.5 590 C641.46169951012 590 632.5 581.0383004898799 632.5 570 C632.5 558.9616995101201 641.46169951012 550 652.5 550 C663.5383004898799 550 672.5 558.9616995101201 672.5 570  Z " id="YfGk8LbKfe"></path><path d="M612.5 570 C612.5 581.0383004898799 603.5383004898799 590 592.5 590 C581.46169951012 590 572.5 581.0383004898799 572.5 570 C572.5 558.9616995101201 581.46169951012 550 592.5 550 C603.5383004898799 550 612.5 558.9616995101201 612.5 570  Z " id="J6gEc7HN6N"></path><path d="M10 570 C10 581.0383004898799 1.0383004898800152 590 -10 590 C-21.038300489879987 590 -30 581.0383004898799 -30 570 C-30 558.96169951012 -21.038300489879987 550 -10 550 C1.0383004898800152 550 10 558.96169951012 10 570  Z " id="otd0F5U0NO"></path><path d="M47.5 630 C47.5 641.0383004898799 38.538300489880015 650 27.5 650 C16.461699510120013 650 7.5 641.0383004898799 7.5 630 C7.5 618.9616995101201 16.461699510120013 610 27.5 610 C38.538300489880015 610 47.5 618.9616995101201 47.5 630  Z " id="XrCKC1JMIM"></path><path d="M167.5 630 C167.5 641.0383004898799 158.53830048988002 650 147.5 650 C136.46169951012 650 127.5 641.0383004898799 127.5 630 C127.5 618.9616995101201 136.46169951012 610 147.5 610 C158.53830048988002 610 167.5 618.9616995101201 167.5 630  Z " id="J2tHfEboNX"></path><path d="M107.5 630 C107.5 641.0383004898799 98.53830048988002 650 87.5 650 C76.46169951012001 650 67.5 641.0383004898799 67.5 630 C67.5 618.9616995101201 76.46169951012001 610 87.5 610 C98.53830048988002 610 107.5 618.9616995101201 107.5 630  Z " id="ArLWuZtvqg"></path><path d="M10 449.99999999999994 C10 461.03830048987993 1.0383004898800152 469.99999999999994 -10 469.99999999999994 C-21.038300489879987 469.99999999999994 -30 461.03830048987993 -30 449.99999999999994 C-30 438.96169951011996 -21.038300489879987 429.99999999999994 -10 429.99999999999994 C1.0383004898800152 429.99999999999994 10 438.96169951011996 10 449.99999999999994  Z " id="g5fS0xWj7"></path><path d="M287.5 630 C287.5 641.0383004898799 278.53830048988004 650 267.5 650 C256.46169951012 650 247.5 641.0383004898799 247.5 630 C247.5 618.9616995101201 256.46169951012 610 267.5 610 C278.53830048988004 610 287.5 618.9616995101201 287.5 630  Z " id="uxOZCAUxTF"></path><path d="M347.5 630 C347.5 641.0383004898799 338.53830048988004 650 327.5 650 C316.46169951012 650 307.5 641.0383004898799 307.5 630 C307.5 618.9616995101201 316.46169951012 610 327.5 610 C338.53830048988004 610 347.5 618.9616995101201 347.5 630  Z " id="Enn2rV6awo"></path><path d="M407.5 630 C407.5 641.0383004898799 398.53830048988004 650 387.5 650 C376.46169951012 650 367.5 641.0383004898799 367.5 630 C367.5 618.9616995101201 376.46169951012 610 387.5 610 C398.53830048988004 610 407.5 618.9616995101201 407.5 630  Z " id="S5k4a3SoP7"></path><path d="M467.5 630 C467.5 641.0383004898799 458.53830048988 650 447.5 650 C436.46169951011996 650 427.5 641.0383004898799 427.5 630 C427.5 618.9616995101201 436.46169951011996 610 447.5 610 C458.53830048988 610 467.5 618.9616995101201 467.5 630  Z " id="h46ekmm1ON"></path><path d="M527.5 630 C527.5 641.0383004898799 518.5383004898799 650 507.5 650 C496.46169951011996 650 487.5 641.0383004898799 487.5 630 C487.5 618.9616995101201 496.46169951011996 610 507.5 610 C518.5383004898799 610 527.5 618.9616995101201 527.5 630  Z " id="wtgy69HBuM"></path><path d="M587.5 630 C587.5 641.0383004898799 578.5383004898799 650 567.5 650 C556.46169951012 650 547.5 641.0383004898799 547.5 630 C547.5 618.9616995101201 556.46169951012 610 567.5 610 C578.5383004898799 610 587.5 618.9616995101201 587.5 630  Z " id="Ip60FpSPeg"></path><path d="M492.5 570 C492.5 581.0383004898799 483.53830048988 590 472.5 590 C461.46169951011996 590 452.5 581.0383004898799 452.5 570 C452.5 558.9616995101201 461.46169951011996 550 472.5 550 C483.53830048988 550 492.5 558.9616995101201 492.5 570  Z " id="CsHNHSJxWo"></path></defs><g visibility="visible"><g visibility="visible"><g transform="matrix(1 0 0 1.0000000000000002 0 -3.552713678800501e-15)" vector-effect="non-scaling-stroke"><use xlink:href="#K6mk0Jls9X" opacity="1" fill="#adebdb" fill-opacity="1"></use></g><g transform="matrix(1 0 0 1 0 0)" vector-effect="non-scaling-stroke"><use xlink:href="#gkYyeF9zyM" opacity="1" fill="#4b4235" fill-opacity="1"></use></g><g transform="matrix(1 0 0 1 0 0)" vector-effect="non-scaling-stroke"><use xlink:href="#PBJM9I2afB" opacity="1" fill="#4b4235" fill-opacity="1"></use></g><g transform="matrix(1 0 0 1 0 0)" vector-effect="non-scaling-stroke"><use xlink:href="#NiFnyOITCM" opacity="1" fill="#4b4235" fill-opacity="1"></use></g><g transform="matrix(1 0 0 1 0 0)" vector-effect="non-scaling-stroke"><use xlink:href="#wCpHXxt7Vd" opacity="1" fill="#4b4235" fill-opacity="1"></use></g><g transform="matrix(1 0 0 1 0 0)" vector-effect="non-scaling-stroke"><use xlink:href="#OnyYfTtMYg" opacity="1" fill="#4b4235" fill-opacity="1"></use></g><g transform="matrix(1 0 0 1 0 0)" vector-effect="non-scaling-stroke"><use xlink:href="#o9hPehNv21" opacity="1" fill="#4b4235" fill-opacity="1"></use></g><g transform="matrix(1 0 0 1 0 0)" vector-effect="non-scaling-stroke"><use xlink:href="#pgrpL4R9Pa" opacity="1" fill="#4b4235" fill-opacity="1"></use></g><g transform="matrix(1 0 0 1 0 0)" vector-effect="non-scaling-stroke"><use xlink:href="#o1hKHQ4NqN" opacity="1" fill="#4b4235" fill-opacity="1"></use></g><g transform="matrix(1 0 0 1 0 0)" vector-effect="non-scaling-stroke"><use xlink:href="#HAnUB7LSKH" opacity="1" fill="#4b4235" fill-opacity="1"></use></g><g transform="matrix(1 0 0 1 0 0)" vector-effect="non-scaling-stroke"><use xlink:href="#r3ESILadSp" opacity="1" fill="#4b4235" fill-opacity="1"></use></g><g transform="matrix(1 0 0 1 0 0)" vector-effect="non-scaling-stroke"><use xlink:href="#CybpU1L02H" opacity="1" fill="#4b4235" fill-opacity="1"></use></g><g transform="matrix(1 0 0 1 0 0)" vector-effect="non-scaling-stroke"><use xlink:href="#b9E3yX7DPj" opacity="1" fill="#4b4235" fill-opacity="1"></use></g><g transform="matrix(1 0 0 1 0 0)" vector-effect="non-scaling-stroke"><use xlink:href="#zs3PjzDnwc" opacity="1" fill="#4b4235" fill-opacity="1"></use></g><g transform="matrix(1 0 0 1 0 0)" vector-effect="non-scaling-stroke"><use xlink:href="#Qwool4RJdJ" opacity="1" fill="#4b4235" fill-opacity="1"></use></g><g transform="matrix(1 0 0 1 0 0)" vector-effect="non-scaling-stroke"><use xlink:href="#EE5HqFpY5h" opacity="1" fill="#4b4235" fill-opacity="1"></use></g><g transform="matrix(1 0 0 1 0 0)" vector-effect="non-scaling-stroke"><use xlink:href="#Ekwo4FP7La" opacity="1" fill="#4b4235" fill-opacity="1"></use></g><g transform="matrix(1 0 0 1 0 0)" vector-effect="non-scaling-stroke"><use xlink:href="#VkZfwqneaQ" opacity="1" fill="#4b4235" fill-opacity="1"></use></g><g transform="matrix(1 0 0 1 0 0)" vector-effect="non-scaling-stroke"><use xlink:href="#Zn53Jdeuv6" opacity="1" fill="#4b4235" fill-opacity="1"></use></g><g transform="matrix(1 0 0 1 0 0)" vector-effect="non-scaling-stroke"><use xlink:href="#z1w7dJfK3n" opacity="1" fill="#4b4235" fill-opacity="1"></use></g><g transform="matrix(1 0 0 1 0 0)" vector-effect="non-scaling-stroke"><use xlink:href="#j1Z1jWE84F" opacity="1" fill="#4b4235" fill-opacity="1"></use></g><g transform="matrix(1 0 0 1 0 0)" vector-effect="non-scaling-stroke"><use xlink:href="#fe57kHfLON" opacity="1" fill="#4b4235" fill-opacity="1"></use></g><g transform="matrix(1 0 0 1 0 0)" vector-effect="non-scaling-stroke"><use xlink:href="#J5ljwwNbO1" opacity="1" fill="#4b4235" fill-opacity="1"></use></g><g transform="matrix(1 0 0 1 0 0)" vector-effect="non-scaling-stroke"><use xlink:href="#t68V1C5hL3" opacity="1" fill="#4b4235" fill-opacity="1"></use></g><g transform="matrix(1 0 0 1 0 0)" vector-effect="non-scaling-stroke"><use xlink:href="#N5YLyq7DDb" opacity="1" fill="#4b4235" fill-opacity="1"></use></g><g transform="matrix(1 0 0 1 0 0)" vector-effect="non-scaling-stroke"><use xlink:href="#LkBYnFvlio" opacity="1" fill="#4b4235" fill-opacity="1"></use></g><g transform="matrix(1 0 0 1 0 0)" vector-effect="non-scaling-stroke"><use xlink:href="#sf8S9DZc3L" opacity="1" fill="#4b4235" fill-opacity="1"></use></g><g transform="matrix(1 0 0 1 0 0)" vector-effect="non-scaling-stroke"><use xlink:href="#sudyXaFkju" opacity="1" fill="#4b4235" fill-opacity="1"></use></g><g transform="matrix(1 0 0 1 0 0)" vector-effect="non-scaling-stroke"><use xlink:href="#r20KHOimB3" opacity="1" fill="#4b4235" fill-opacity="1"></use></g><g transform="matrix(1 0 0 1 0 0)" vector-effect="non-scaling-stroke"><use xlink:href="#JBx8qdju4n" opacity="1" fill="#4b4235" fill-opacity="1"></use></g><g transform="matrix(1 0 0 1 0 0)" vector-effect="non-scaling-stroke"><use xlink:href="#pxUOynKzKf" opacity="1" fill="#4b4235" fill-opacity="1"></use></g><g transform="matrix(1 0 0 1 0 0)" vector-effect="non-scaling-stroke"><use xlink:href="#n3poEoZECl" opacity="1" fill="#4b4235" fill-opacity="1"></use></g><g transform="matrix(1 0 0 1 0 0)" vector-effect="non-scaling-stroke"><use xlink:href="#pgmkZy5BS0" opacity="1" fill="#4b4235" fill-opacity="1"></use></g><g transform="matrix(1 0 0 1 0 0)" vector-effect="non-scaling-stroke"><use xlink:href="#hitOkrpGwM" opacity="1" fill="#4b4235" fill-opacity="1"></use></g><g transform="matrix(1 0 0 1 0 0)" vector-effect="non-scaling-stroke"><use xlink:href="#q8JlPA1uNj" opacity="1" fill="#4b4235" fill-opacity="1"></use></g><g transform="matrix(1 0 0 1 0 0)" vector-effect="non-scaling-stroke"><use xlink:href="#fsITmXaTfy" opacity="1" fill="#4b4235" fill-opacity="1"></use></g><g transform="matrix(1 0 0 1 0 0)" vector-effect="non-scaling-stroke"><use xlink:href="#JgtTEEhN4c" opacity="1" fill="#4b4235" fill-opacity="1"></use></g><g transform="matrix(1 0 0 1 0 0)" vector-effect="non-scaling-stroke"><use xlink:href="#nziJajxtmf" opacity="1" fill="#4b4235" fill-opacity="1"></use></g><g transform="matrix(1 0 0 1 0 0)" vector-effect="non-scaling-stroke"><use xlink:href="#P6kCNWLWr7" opacity="1" fill="#4b4235" fill-opacity="1"></use></g><g transform="matrix(1 0 0 1 0 0)" vector-effect="non-scaling-stroke"><use xlink:href="#L33VOM5cyZ" opacity="1" fill="#4b4235" fill-opacity="1"></use></g><g transform="matrix(1 0 0 1 0 0)" vector-effect="non-scaling-stroke"><use xlink:href="#WrUx6eijVm" opacity="1" fill="#4b4235" fill-opacity="1"></use></g><g transform="matrix(1 0 0 1 0 0)" vector-effect="non-scaling-stroke"><use xlink:href="#CzgW77Krkr" opacity="1" fill="#4b4235" fill-opacity="1"></use></g><g transform="matrix(1 0 0 1 0 0)" vector-effect="non-scaling-stroke"><use xlink:href="#D7MPUDbfZD" opacity="1" fill="#4b4235" fill-opacity="1"></use></g><g transform="matrix(1 0 0 1 0 0)" vector-effect="non-scaling-stroke"><use xlink:href="#CEBlR1Fgo7" opacity="1" fill="#4b4235" fill-opacity="1"></use></g><g transform="matrix(1 0 0 1 0 0)" vector-effect="non-scaling-stroke"><use xlink:href="#GbJoE78Va1" opacity="1" fill="#4b4235" fill-opacity="1"></use></g><g transform="matrix(1 0 0 1 0 -2.842170943040401e-14)" vector-effect="non-scaling-stroke"><use xlink:href="#GC2c9J4MUv" opacity="1" fill="#4b4235" fill-opacity="1"></use></g><g transform="matrix(1 0 0 1 0 -2.842170943040401e-14)" vector-effect="non-scaling-stroke"><use xlink:href="#sm7XaaVA6A" opacity="1" fill="#4b4235" fill-opacity="1"></use></g><g transform="matrix(1 0 0 1 0 -2.842170943040401e-14)" vector-effect="non-scaling-stroke"><use xlink:href="#YzjQw8OBRB" opacity="1" fill="#4b4235" fill-opacity="1"></use></g><g transform="matrix(1 0 0 1 0 -2.842170943040401e-14)" vector-effect="non-scaling-stroke"><use xlink:href="#IpMYXG8M12" opacity="1" fill="#4b4235" fill-opacity="1"></use></g><g transform="matrix(1 0 0 1 0 -2.842170943040401e-14)" vector-effect="non-scaling-stroke"><use xlink:href="#s6hjyghjC9" opacity="1" fill="#4b4235" fill-opacity="1"></use></g><g transform="matrix(1 0 0 1 0 -2.842170943040401e-14)" vector-effect="non-scaling-stroke"><use xlink:href="#BdFGlFiamB" opacity="1" fill="#4b4235" fill-opacity="1"></use></g><g transform="matrix(1 0 0 1 0 -2.842170943040401e-14)" vector-effect="non-scaling-stroke"><use xlink:href="#EfsSoA3jNL" opacity="1" fill="#4b4235" fill-opacity="1"></use></g><g transform="matrix(1 0 0 1 0 -2.842170943040401e-14)" vector-effect="non-scaling-stroke"><use xlink:href="#T5fZmWn4Fr" opacity="1" fill="#4b4235" fill-opacity="1"></use></g><g transform="matrix(1 0 0 1 0 -2.842170943040401e-14)" vector-effect="non-scaling-stroke"><use xlink:href="#Zmfz5W0DxC" opacity="1" fill="#4b4235" fill-opacity="1"></use></g><g transform="matrix(1 0 0 1 0 -2.842170943040401e-14)" vector-effect="non-scaling-stroke"><use xlink:href="#Ls30DjPSc8" opacity="1" fill="#4b4235" fill-opacity="1"></use></g><g transform="matrix(1 0 0 1 0 -2.842170943040401e-14)" vector-effect="non-scaling-stroke"><use xlink:href="#Iw9vJKAtSn" opacity="1" fill="#4b4235" fill-opacity="1"></use></g><g transform="matrix(1 0 0 1 0 -2.842170943040401e-14)" vector-effect="non-scaling-stroke"><use xlink:href="#DgsBp33VIY" opacity="1" fill="#4b4235" fill-opacity="1"></use></g><g transform="matrix(1 0 0 1 0 -2.842170943040401e-14)" vector-effect="non-scaling-stroke"><use xlink:href="#AqHoR3MYPC" opacity="1" fill="#4b4235" fill-opacity="1"></use></g><g transform="matrix(1 0 0 1 0 -2.842170943040401e-14)" vector-effect="non-scaling-stroke"><use xlink:href="#g6dslqS5JT" opacity="1" fill="#4b4235" fill-opacity="1"></use></g><g transform="matrix(1 0 0 1 0 -2.842170943040401e-14)" vector-effect="non-scaling-stroke"><use xlink:href="#xdLTqiWE8x" opacity="1" fill="#4b4235" fill-opacity="1"></use></g><g transform="matrix(1 0 0 1 0 -2.842170943040401e-14)" vector-effect="non-scaling-stroke"><use xlink:href="#W5xjh9YWdz" opacity="1" fill="#4b4235" fill-opacity="1"></use></g><g transform="matrix(1 0 0 1 0 -2.842170943040401e-14)" vector-effect="non-scaling-stroke"><use xlink:href="#MfYpjANfG0" opacity="1" fill="#4b4235" fill-opacity="1"></use></g><g transform="matrix(1 0 0 1 0 -2.842170943040401e-14)" vector-effect="non-scaling-stroke"><use xlink:href="#YqWdDYU4aA" opacity="1" fill="#4b4235" fill-opacity="1"></use></g><g transform="matrix(1 0 0 1 0 -2.842170943040401e-14)" vector-effect="non-scaling-stroke"><use xlink:href="#NnIAGeDLR6" opacity="1" fill="#4b4235" fill-opacity="1"></use></g><g transform="matrix(1 0 0 1 0 -2.842170943040401e-14)" vector-effect="non-scaling-stroke"><use xlink:href="#jAtWXsfdoj" opacity="1" fill="#4b4235" fill-opacity="1"></use></g><g transform="matrix(1 0 0 1 0 -2.842170943040401e-14)" vector-effect="non-scaling-stroke"><use xlink:href="#DklT5FC3Ru" opacity="1" fill="#4b4235" fill-opacity="1"></use></g><g transform="matrix(1 0 0 1 0 -2.842170943040401e-14)" vector-effect="non-scaling-stroke"><use xlink:href="#Qg16sAwkko" opacity="1" fill="#4b4235" fill-opacity="1"></use></g><g transform="matrix(1 0 0 1 0 -2.842170943040401e-14)" vector-effect="non-scaling-stroke"><use xlink:href="#IxEYaHKo6H" opacity="1" fill="#4b4235" fill-opacity="1"></use></g><g transform="matrix(1 0 0 1 0 -2.842170943040401e-14)" vector-effect="non-scaling-stroke"><use xlink:href="#l92cvNkBIR" opacity="1" fill="#4b4235" fill-opacity="1"></use></g><g transform="matrix(1 0 0 1 0 -2.842170943040401e-14)" vector-effect="non-scaling-stroke"><use xlink:href="#jz9Npd7r5B" opacity="1" fill="#4b4235" fill-opacity="1"></use></g><g transform="matrix(1 0 0 1 0 -2.842170943040401e-14)" vector-effect="non-scaling-stroke"><use xlink:href="#CBM0GXOBiL" opacity="1" fill="#4b4235" fill-opacity="1"></use></g><g transform="matrix(1 0 0 1 0 -2.842170943040401e-14)" vector-effect="non-scaling-stroke"><use xlink:href="#CtAQNG69Y4" opacity="1" fill="#4b4235" fill-opacity="1"></use></g><g transform="matrix(1 0 0 1 0 -2.842170943040401e-14)" vector-effect="non-scaling-stroke"><use xlink:href="#BB1CgRl0GH" opacity="1" fill="#4b4235" fill-opacity="1"></use></g><g transform="matrix(1 0 0 1 0 -2.842170943040401e-14)" vector-effect="non-scaling-stroke"><use xlink:href="#A9x2wqUIXD" opacity="1" fill="#4b4235" fill-opacity="1"></use></g><g transform="matrix(1 0 0 1 0 -2.842170943040401e-14)" vector-effect="non-scaling-stroke"><use xlink:href="#zwDWzozWRV" opacity="1" fill="#4b4235" fill-opacity="1"></use></g><g transform="matrix(1 0 0 1 0 -2.842170943040401e-14)" vector-effect="non-scaling-stroke"><use xlink:href="#B92owXV2cF" opacity="1" fill="#4b4235" fill-opacity="1"></use></g><g transform="matrix(1 0 0 1 0 -2.842170943040401e-14)" vector-effect="non-scaling-stroke"><use xlink:href="#UzUHSvkhyL" opacity="1" fill="#4b4235" fill-opacity="1"></use></g><g transform="matrix(1 0 0 1 0 -2.842170943040401e-14)" vector-effect="non-scaling-stroke"><use xlink:href="#Bof17fJmKs" opacity="1" fill="#4b4235" fill-opacity="1"></use></g><g transform="matrix(1 0 0 1 0 -2.842170943040401e-14)" vector-effect="non-scaling-stroke"><use xlink:href="#Ekhv2zItjy" opacity="1" fill="#4b4235" fill-opacity="1"></use></g><g transform="matrix(1 0 0 1 0 -2.842170943040401e-14)" vector-effect="non-scaling-stroke"><use xlink:href="#snUu0hk6ZO" opacity="1" fill="#4b4235" fill-opacity="1"></use></g><g transform="matrix(1 0 0 1 0 -2.842170943040401e-14)" vector-effect="non-scaling-stroke"><use xlink:href="#LgTSu1uRQQ" opacity="1" fill="#4b4235" fill-opacity="1"></use></g><g transform="matrix(1 0 0 1 0 -2.842170943040401e-14)" vector-effect="non-scaling-stroke"><use xlink:href="#oevz16tIE9" opacity="1" fill="#4b4235" fill-opacity="1"></use></g><g transform="matrix(1 0 0 1 0 -2.842170943040401e-14)" vector-effect="non-scaling-stroke"><use xlink:href="#EA7qSNK3td" opacity="1" fill="#4b4235" fill-opacity="1"></use></g><g transform="matrix(1 0 0 1 0 -2.842170943040401e-14)" vector-effect="non-scaling-stroke"><use xlink:href="#mwoqhLvB4r" opacity="1" fill="#4b4235" fill-opacity="1"></use></g><g transform="matrix(1 0 0 1 0 -2.842170943040401e-14)" vector-effect="non-scaling-stroke"><use xlink:href="#ykCuyjULaE" opacity="1" fill="#4b4235" fill-opacity="1"></use></g><g transform="matrix(1 0 0 1 0 -2.842170943040401e-14)" vector-effect="non-scaling-stroke"><use xlink:href="#OmXv0JYK0o" opacity="1" fill="#4b4235" fill-opacity="1"></use></g><g transform="matrix(1 0 0 1 0 -2.842170943040401e-14)" vector-effect="non-scaling-stroke"><use xlink:href="#heYtbt2GvT" opacity="1" fill="#4b4235" fill-opacity="1"></use></g><g transform="matrix(1 0 0 1 0 -2.842170943040401e-14)" vector-effect="non-scaling-stroke"><use xlink:href="#ma5cFfGQhj" opacity="1" fill="#4b4235" fill-opacity="1"></use></g><g transform="matrix(1 0 0 1 0 -2.842170943040401e-14)" vector-effect="non-scaling-stroke"><use xlink:href="#Xb69TCs1O1" opacity="1" fill="#4b4235" fill-opacity="1"></use></g><g transform="matrix(1 0 0 1 0 5.684341886080802e-14)" vector-effect="non-scaling-stroke"><use xlink:href="#b266LnT0Qh" opacity="1" fill="#4b4235" fill-opacity="1"></use></g><g transform="matrix(1 0 0 1 0 5.684341886080802e-14)" vector-effect="non-scaling-stroke"><use xlink:href="#BtoLPXZczK" opacity="1" fill="#4b4235" fill-opacity="1"></use></g><g transform="matrix(1 0 0 1 0 5.684341886080802e-14)" vector-effect="non-scaling-stroke"><use xlink:href="#wEDj6xVjZB" opacity="1" fill="#4b4235" fill-opacity="1"></use></g><g transform="matrix(1 0 0 1 0 5.684341886080802e-14)" vector-effect="non-scaling-stroke"><use xlink:href="#dsEBtN80LK" opacity="1" fill="#4b4235" fill-opacity="1"></use></g><g transform="matrix(1 0 0 1 0 5.684341886080802e-14)" vector-effect="non-scaling-stroke"><use xlink:href="#pjTcefcFJC" opacity="1" fill="#4b4235" fill-opacity="1"></use></g><g transform="matrix(1 0 0 1 0 5.684341886080802e-14)" vector-effect="non-scaling-stroke" visibility="visible"><use xlink:href="#SqS4U9t1Cw" opacity="1" fill="#4b4235" fill-opacity="1"></use></g><g transform="matrix(1 0 0 1 0 5.684341886080802e-14)" vector-effect="non-scaling-stroke"><use xlink:href="#tq4D9zwOe4" opacity="1" fill="#4b4235" fill-opacity="1"></use></g><g transform="matrix(1 0 0 1 0 5.684341886080802e-14)" vector-effect="non-scaling-stroke"><use xlink:href="#hefCzqDL57" opacity="1" fill="#4b4235" fill-opacity="1"></use></g><g transform="matrix(1 0 0 1 0 5.684341886080802e-14)" vector-effect="non-scaling-stroke"><use xlink:href="#NEcg6Xne2j" opacity="1" fill="#4b4235" fill-opacity="1"></use></g><g transform="matrix(1 0 0 1 0 5.684341886080802e-14)" vector-effect="non-scaling-stroke"><use xlink:href="#UmTgVxhkME" opacity="1" fill="#4b4235" fill-opacity="1"></use></g><g transform="matrix(1 0 0 1 0 5.684341886080802e-14)" vector-effect="non-scaling-stroke"><use xlink:href="#ectZ62NzR7" opacity="1" fill="#4b4235" fill-opacity="1"></use></g><g transform="matrix(1 0 0 1 0 5.684341886080802e-14)" vector-effect="non-scaling-stroke"><use xlink:href="#mvaQjYMQ1h" opacity="1" fill="#4b4235" fill-opacity="1"></use></g><g transform="matrix(1 0 0 1 0 5.684341886080802e-14)" vector-effect="non-scaling-stroke"><use xlink:href="#bjIFgTaycM" opacity="1" fill="#4b4235" fill-opacity="1"></use></g><g transform="matrix(1 0 0 1 0 5.684341886080802e-14)" vector-effect="non-scaling-stroke"><use xlink:href="#Xt9R1B07cc" opacity="1" fill="#4b4235" fill-opacity="1"></use></g><g transform="matrix(1 0 0 1 0 5.684341886080802e-14)" vector-effect="non-scaling-stroke"><use xlink:href="#Wz5NLwj1fh" opacity="1" fill="#4b4235" fill-opacity="1"></use></g><g transform="matrix(1 0 0 1 0 0)" vector-effect="non-scaling-stroke"><use xlink:href="#DzsIIR88Gz" opacity="1" fill="#4b4235" fill-opacity="1"></use></g><g transform="matrix(1 0 0 1 0 5.684341886080802e-14)" vector-effect="non-scaling-stroke"><use xlink:href="#OouPcONLmo" opacity="1" fill="#4b4235" fill-opacity="1"></use></g><g transform="matrix(1 0 0 1 0 5.684341886080802e-14)" vector-effect="non-scaling-stroke"><use xlink:href="#koerISnX0I" opacity="1" fill="#4b4235" fill-opacity="1"></use></g><g transform="matrix(1 0 0 1 0 5.684341886080802e-14)" vector-effect="non-scaling-stroke"><use xlink:href="#qd0NrLSHSx" opacity="1" fill="#4b4235" fill-opacity="1"></use></g><g transform="matrix(1 0 0 1 0 5.684341886080802e-14)" vector-effect="non-scaling-stroke"><use xlink:href="#tlqYU83uh2" opacity="1" fill="#4b4235" fill-opacity="1"></use></g><g transform="matrix(1 0 0 1 0 5.684341886080802e-14)" vector-effect="non-scaling-stroke"><use xlink:href="#hiHhMkqtdS" opacity="1" fill="#4b4235" fill-opacity="1"></use></g><g transform="matrix(1 0 0 1 0 5.684341886080802e-14)" vector-effect="non-scaling-stroke"><use xlink:href="#YfGk8LbKfe" opacity="1" fill="#4b4235" fill-opacity="1"></use></g><g transform="matrix(1 0 0 1 0 5.684341886080802e-14)" vector-effect="non-scaling-stroke"><use xlink:href="#J6gEc7HN6N" opacity="1" fill="#4b4235" fill-opacity="1"></use></g><g transform="matrix(1 0 0 1 0 0)" vector-effect="non-scaling-stroke"><use xlink:href="#otd0F5U0NO" opacity="1" fill="#4b4235" fill-opacity="1"></use></g><g transform="matrix(1 0 0 1 0 5.684341886080802e-14)" vector-effect="non-scaling-stroke"><use xlink:href="#XrCKC1JMIM" opacity="1" fill="#4b4235" fill-opacity="1"></use></g><g transform="matrix(1 0 0 1 0 5.684341886080802e-14)" vector-effect="non-scaling-stroke"><use xlink:href="#J2tHfEboNX" opacity="1" fill="#4b4235" fill-opacity="1"></use></g><g transform="matrix(1 0 0 1 0 5.684341886080802e-14)" vector-effect="non-scaling-stroke"><use xlink:href="#ArLWuZtvqg" opacity="1" fill="#4b4235" fill-opacity="1"></use></g><g transform="matrix(1 0 0 1 0 0)" vector-effect="non-scaling-stroke"><use xlink:href="#g5fS0xWj7" opacity="1" fill="#4b4235" fill-opacity="1"></use></g><g transform="matrix(1 0 0 1 0 5.684341886080802e-14)" vector-effect="non-scaling-stroke"><use xlink:href="#uxOZCAUxTF" opacity="1" fill="#4b4235" fill-opacity="1"></use></g><g transform="matrix(1 0 0 1 0 5.684341886080802e-14)" vector-effect="non-scaling-stroke"><use xlink:href="#Enn2rV6awo" opacity="1" fill="#4b4235" fill-opacity="1"></use></g><g transform="matrix(1 0 0 1 0 5.684341886080802e-14)" vector-effect="non-scaling-stroke"><use xlink:href="#S5k4a3SoP7" opacity="1" fill="#4b4235" fill-opacity="1"></use></g><g transform="matrix(1 0 0 1 0 5.684341886080802e-14)" vector-effect="non-scaling-stroke"><use xlink:href="#h46ekmm1ON" opacity="1" fill="#4b4235" fill-opacity="1"></use></g><g transform="matrix(1 0 0 1 0 5.684341886080802e-14)" vector-effect="non-scaling-stroke"><use xlink:href="#wtgy69HBuM" opacity="1" fill="#4b4235" fill-opacity="1"></use></g><g transform="matrix(1 0 0 1 0 5.684341886080802e-14)" vector-effect="non-scaling-stroke"><use xlink:href="#Ip60FpSPeg" opacity="1" fill="#4b4235" fill-opacity="1"></use></g><g transform="matrix(1 0 0 1 0 5.684341886080802e-14)" vector-effect="non-scaling-stroke"><use xlink:href="#CsHNHSJxWo" opacity="1" fill="#4b4235" fill-opacity="1"></use></g></g></g></svg>
